<?xml version="1.0" standalone="no"?>
<!DOCTYPE svg PUBLIC "-//W3C//DTD SVG 20010904//EN"
 "http://www.w3.org/TR/2001/REC-SVG-20010904/DTD/svg10.dtd">
<svg version="1.0" xmlns="http://www.w3.org/2000/svg"
 width="768.000000pt" height="768.000000pt" viewBox="0 0 768.000000 768.000000"
 preserveAspectRatio="xMidYMid meet">
<metadata>
Created by potrace 1.11, written by Peter Selinger 2001-2013
</metadata>
<g transform="translate(0.000000,768.000000) scale(0.100000,-0.100000)"
fill="#000000" stroke="none">
<path d="M3676 7047 c3 -10 9 -15 12 -12 3 3 0 11 -7 18 -10 9 -11 8 -5 -6z"/>
<path d="M3245 6999 c-16 -5 -48 -11 -70 -14 -47 -7 -65 -10 -85 -18 -59 -22
-114 -36 -121 -31 -5 3 -9 1 -9 -5 0 -6 -12 -14 -27 -17 -33 -9 -196 -89 -235
-116 -16 -11 -28 -17 -28 -14 0 3 -8 -2 -19 -11 -10 -10 -51 -40 -90 -67 -39
-27 -71 -53 -71 -58 0 -4 -5 -8 -10 -8 -13 0 -176 -162 -246 -243 -27 -31 -65
-66 -84 -76 -19 -11 -55 -30 -80 -42 -25 -13 -48 -28 -51 -33 -4 -5 -14 -6
-24 -3 -9 4 -14 3 -11 -2 3 -4 -18 -18 -47 -31 -29 -13 -70 -31 -92 -41 -57
-25 -114 -39 -159 -39 -45 0 -116 19 -116 32 0 4 -3 7 -7 6 -5 0 -39 13 -78
31 -108 49 -107 49 -150 66 -148 61 -250 77 -324 50 -56 -19 -115 -64 -119
-90 -2 -11 -5 -32 -7 -46 -1 -15 -6 -36 -10 -48 -3 -11 -3 -21 2 -21 5 0 10
-10 11 -22 3 -29 6 -43 21 -96 6 -23 9 -48 5 -54 -4 -6 -3 -8 3 -5 5 3 20 -17
33 -46 13 -29 32 -61 42 -71 10 -11 18 -24 18 -29 0 -4 7 -15 15 -24 8 -8 13
-19 9 -24 -3 -5 -2 -9 3 -7 14 3 114 -102 107 -114 -4 -7 -3 -8 4 -4 12 7 152
-100 152 -116 0 -4 3 -7 8 -6 4 2 24 -9 45 -24 l39 -26 -39 -12 c-21 -7 -42
-16 -48 -20 -5 -5 -14 -8 -18 -9 -21 0 -118 -56 -146 -83 -35 -35 -46 -65 -37
-108 7 -37 47 -100 64 -100 6 0 12 -4 12 -9 0 -28 223 -105 295 -101 170 9
345 8 339 -2 -4 -7 -3 -8 4 -4 14 8 92 -11 92 -23 0 -5 6 -9 13 -8 43 1 50 -3
36 -20 -13 -16 -12 -17 3 -5 10 8 35 12 63 10 42 -3 48 -6 68 -43 12 -22 25
-41 30 -43 4 -2 7 -8 7 -14 0 -5 7 -16 15 -25 8 -8 12 -20 8 -26 -3 -7 -3 -9
1 -5 4 3 34 -24 65 -60 32 -37 68 -75 79 -86 12 -10 19 -23 16 -27 -3 -5 2 -6
10 -3 22 8 32 -22 15 -43 -8 -9 -14 -19 -13 -22 3 -17 -19 -60 -29 -54 -6 3
-7 1 -3 -6 10 -16 -95 -213 -111 -207 -7 3 -10 -1 -7 -9 7 -17 -215 -314 -234
-315 -7 0 -11 -4 -7 -9 3 -6 -4 -15 -15 -21 -11 -6 -20 -15 -20 -21 0 -10 -46
-63 -124 -144 -21 -22 -39 -42 -40 -45 0 -3 -7 -13 -16 -24 -39 -48 -58 -65
-64 -59 -4 4 -5 1 -2 -7 4 -9 -6 -28 -22 -45 -16 -17 -34 -41 -41 -53 -7 -13
-17 -19 -23 -16 -6 4 -8 3 -4 -4 3 -6 1 -16 -6 -24 -7 -7 -29 -37 -48 -65 -19
-29 -38 -53 -42 -53 -5 0 -8 -5 -8 -11 0 -5 -10 -25 -23 -44 -19 -28 -26 -32
-37 -22 -12 10 -12 9 -1 -6 12 -15 11 -20 -1 -35 -8 -9 -18 -25 -21 -35 -4
-11 -12 -15 -18 -11 -7 4 -9 3 -6 -3 9 -14 -37 -95 -48 -86 -4 5 -5 3 -1 -4 7
-12 -61 -162 -79 -175 -5 -4 -7 -8 -3 -8 4 0 -6 -38 -22 -84 -16 -46 -32 -97
-35 -113 -2 -15 -7 -39 -10 -53 -3 -14 -8 -71 -10 -128 -3 -57 -8 -108 -11
-114 -4 -6 -2 -8 3 -5 6 4 13 -6 15 -24 3 -16 1 -32 -4 -35 -5 -3 -4 -12 2
-19 6 -8 10 -22 8 -32 -1 -10 1 -23 5 -29 4 -7 8 -30 10 -51 2 -22 6 -44 9
-49 3 -5 11 -31 17 -59 7 -27 17 -59 22 -70 4 -11 10 -29 11 -40 2 -11 6 -22
10 -25 4 -3 9 -17 10 -30 2 -14 9 -31 16 -38 7 -8 10 -17 7 -22 -3 -5 -2 -10
2 -12 5 -1 23 -34 42 -73 19 -38 54 -100 77 -137 23 -36 40 -69 37 -72 -4 -3
-2 -6 4 -6 6 0 29 -26 51 -58 23 -32 48 -64 56 -71 9 -8 13 -17 10 -22 -3 -5
-1 -8 4 -7 15 4 63 -52 56 -64 -4 -6 -2 -8 4 -4 14 8 44 -22 36 -36 -4 -7 -2
-8 4 -4 7 4 12 2 12 -3 0 -6 4 -11 10 -11 17 0 60 -43 53 -53 -3 -6 -1 -7 5
-3 6 3 16 0 24 -7 7 -7 28 -23 46 -36 18 -12 29 -27 26 -33 -4 -7 -2 -8 4 -4
11 7 110 -55 124 -77 4 -7 8 -8 8 -4 0 5 16 -1 35 -13 19 -12 48 -28 65 -36
16 -9 30 -20 30 -25 0 -6 4 -8 9 -4 5 3 17 -2 25 -11 9 -8 16 -13 16 -9 0 8
64 -26 72 -39 4 -6 8 -8 8 -4 0 10 60 -12 60 -23 0 -4 6 -6 14 -3 8 3 17 1 21
-5 3 -6 15 -11 26 -11 10 0 19 -4 19 -8 0 -5 6 -9 13 -10 23 -2 112 -36 115
-44 2 -4 7 -6 12 -3 4 3 27 -2 51 -11 47 -17 66 -22 87 -23 7 -1 11 -4 9 -9
-3 -4 8 -7 23 -8 15 -1 36 -5 46 -9 11 -4 26 -7 36 -6 9 1 19 -3 22 -8 4 -6
14 -7 23 -4 9 4 14 2 11 -3 -4 -5 15 -10 40 -11 31 -1 51 -7 59 -19 7 -10 13
-13 13 -7 0 14 48 7 69 -10 12 -9 13 -9 7 1 -4 7 -2 12 8 12 8 0 17 -4 21 -10
3 -5 13 -6 22 -3 13 5 13 2 -3 -22 -17 -26 -32 -76 -18 -63 3 3 6 13 8 21 4
27 37 68 49 60 7 -4 22 -6 35 -4 24 3 29 -8 10 -27 -7 -7 -8 -12 -2 -12 5 0
16 8 23 19 15 21 48 17 69 -8 10 -14 11 -14 5 3 -4 12 -3 17 4 13 5 -3 26 -7
45 -9 29 -2 36 -6 36 -24 0 -16 -5 -21 -17 -17 -13 5 -14 4 -3 -8 11 -12 15
-11 26 3 10 13 15 15 24 6 7 -7 12 -8 12 -4 0 5 7 3 15 -4 12 -10 18 -10 30 0
8 7 15 18 15 24 0 6 15 12 34 13 26 2 35 -1 39 -17 6 -25 -8 -26 -22 -3 -6 10
-11 13 -11 7 0 -21 29 -38 43 -25 8 6 17 8 20 4 4 -3 7 -1 7 6 0 8 -7 11 -15
7 -18 -6 -20 10 -3 20 6 4 17 -1 25 -11 11 -16 13 -16 13 -3 0 13 8 15 43 11
23 -3 48 -11 56 -17 11 -8 13 -8 7 1 -5 9 1 13 19 13 18 0 24 -4 19 -12 -4 -7
-4 -10 1 -6 4 4 14 0 21 -10 12 -16 14 -16 31 2 17 18 17 18 -4 7 -17 -8 -22
-8 -27 5 -3 9 -6 16 -6 17 0 1 21 1 46 1 32 -1 50 -7 56 -18 6 -10 5 -16 -1
-16 -5 0 -12 8 -14 18 -4 15 -5 15 -6 0 -1 -24 17 -32 36 -16 13 10 17 10 20
1 3 -7 9 -13 14 -13 5 0 4 9 -3 19 -9 15 -15 17 -25 9 -10 -8 -13 -7 -13 4 0
10 14 14 55 14 41 0 54 -3 51 -13 -3 -7 -2 -12 2 -12 21 3 32 -2 26 -12 -4 -7
7 -4 25 7 17 10 31 23 31 28 0 5 -9 1 -19 -8 -15 -14 -24 -15 -38 -7 -19 11
-19 12 12 17 74 13 84 12 83 -10 -1 -11 -4 -26 -7 -31 -3 -6 3 -1 14 12 23 26
45 32 24 6 -13 -15 -12 -15 8 -2 19 11 20 15 8 22 -8 4 -20 5 -25 2 -6 -3 -10
-1 -10 5 0 6 15 10 33 10 17 -1 46 1 62 4 17 3 50 8 75 10 58 6 129 15 158 21
17 3 22 0 19 -9 -3 -8 1 -22 8 -33 8 -10 15 -13 15 -6 0 6 -4 15 -10 18 -21
13 13 43 47 41 18 -1 33 1 33 4 0 3 9 6 19 7 13 1 18 -3 15 -12 -8 -20 9 -25
31 -9 10 8 14 14 9 14 -6 0 -16 -6 -23 -12 -11 -11 -13 -10 -7 5 3 10 6 21 6
23 0 2 9 4 20 4 19 0 24 -9 21 -40 -2 -13 0 -13 8 -1 5 8 8 23 6 33 -4 21 15
24 34 6 10 -11 11 -9 5 7 -7 18 -6 19 11 5 13 -10 16 -11 11 -2 -5 9 -3 13 5
11 8 -1 27 3 43 10 22 9 32 9 43 0 11 -10 13 -9 11 2 -2 9 5 14 20 13 12 0 22
4 22 9 0 5 11 7 25 5 13 -3 23 -2 20 2 -3 5 66 28 190 64 6 2 18 6 27 10 9 4
22 4 29 0 7 -4 9 -3 6 3 -7 12 61 35 77 26 6 -3 8 -2 3 2 -4 5 41 28 100 52
122 49 117 47 107 31 -4 -7 -3 -8 5 -4 6 4 9 11 7 15 -7 11 63 43 77 35 7 -4
9 -4 5 1 -10 10 81 57 95 48 5 -3 7 -1 3 5 -3 6 4 14 16 18 13 4 23 5 23 3 0
-2 10 5 22 17 13 11 39 29 60 40 21 12 77 46 124 77 48 31 90 53 95 49 4 -4 4
-1 0 6 -4 6 -4 12 1 12 4 0 22 11 38 25 17 13 35 28 40 32 6 5 31 25 56 45 26
21 50 34 54 30 3 -4 5 -2 4 3 -4 12 189 205 204 205 6 0 8 3 4 6 -5 5 20 39
66 86 9 10 17 22 17 27 0 5 4 11 8 13 13 5 67 88 112 173 23 44 45 85 48 90 4
6 7 15 9 20 1 6 15 44 32 85 16 41 33 84 37 95 4 11 8 22 9 25 1 3 6 20 10 37
4 18 11 31 15 28 3 -2 6 5 5 17 -1 12 6 51 16 87 16 60 29 124 44 206 3 17 8
55 11 85 3 30 7 61 10 68 2 8 7 57 10 110 7 119 7 115 19 124 6 5 6 8 -1 8 -7
0 -10 14 -7 38 2 20 5 109 6 197 1 94 6 163 12 167 7 5 6 8 -1 8 -6 0 -10 27
-10 71 1 39 -2 73 -5 75 -8 5 -5 37 6 53 5 9 4 12 -2 8 -7 -5 -12 9 -14 37 -2
24 0 42 4 39 5 -3 4 3 -2 13 -5 11 -17 60 -26 111 -21 118 -21 115 -30 136 -4
9 -5 26 -2 37 3 11 1 18 -3 15 -7 -4 -26 36 -35 75 -1 3 -11 25 -23 50 -11 24
-18 49 -15 55 4 5 3 7 -2 3 -7 -7 -65 74 -65 91 0 5 -7 12 -16 15 -9 4 -14 9
-11 12 3 3 -18 27 -46 54 -55 52 -161 110 -201 110 -14 0 -27 4 -30 9 -3 5
-21 5 -40 1 -18 -4 -41 -3 -50 2 -9 5 -16 5 -16 1 0 -5 -16 -15 -35 -22 -61
-22 -140 -139 -185 -275 -6 -20 -16 -34 -21 -31 -5 4 -7 0 -4 -7 6 -17 -21
-52 -34 -43 -7 3 -8 0 -5 -9 6 -14 -7 -30 -122 -150 -23 -24 -59 -56 -80 -72
-22 -16 -48 -37 -59 -47 -10 -10 -25 -15 -33 -12 -7 2 -11 1 -8 -4 6 -9 -42
-31 -107 -49 -26 -7 -35 -7 -31 0 5 7 2 8 -7 2 -20 -12 -45 -12 -114 3 -33 7
-73 15 -89 18 -16 2 -34 9 -39 14 -5 5 -16 7 -23 4 -8 -3 -14 0 -14 6 0 6 -7
8 -17 4 -10 -4 -14 -2 -10 4 4 6 1 11 -6 10 -34 -1 -48 4 -41 15 4 6 3 8 -3 5
-14 -9 -95 27 -85 37 4 4 0 7 -8 5 -19 -4 -258 122 -271 143 -3 5 -9 9 -13 8
-10 -1 -80 33 -87 43 -3 5 -10 8 -15 8 -5 0 -17 2 -27 5 -15 5 -16 8 -6 22 11
14 11 15 -1 5 -17 -15 -44 -17 -35 -3 4 6 -1 7 -11 3 -14 -5 -16 -3 -11 12 6
15 5 16 -8 5 -11 -9 -22 -10 -42 -2 -62 24 -155 34 -320 36 -95 0 -173 -1
-173 -4 0 -3 -24 -6 -53 -7 -28 -1 -81 -4 -117 -8 -64 -6 -65 -5 -35 10 17 9
54 30 83 46 28 17 52 27 52 23 0 -4 9 2 20 14 12 12 25 22 31 22 6 0 26 12 44
26 20 15 39 23 46 18 7 -4 9 -3 6 3 -3 5 3 16 15 24 11 8 26 20 34 27 7 6 15
12 19 12 3 0 16 9 27 20 14 13 29 18 42 14 17 -4 18 -3 6 6 -12 9 -12 13 -2
17 8 3 40 27 72 54 32 26 61 46 64 43 3 -2 4 -2 3 1 -2 3 26 36 63 73 75 76
140 155 140 171 0 5 8 14 18 20 9 5 15 13 13 16 -5 8 60 137 74 147 6 4 7 8 3
8 -4 0 3 24 16 53 26 59 34 80 33 87 0 3 5 16 12 29 7 13 15 33 17 45 10 62
27 125 33 122 3 -2 7 12 7 32 3 77 7 111 13 108 13 -8 2 254 -15 359 -11 69
-27 141 -34 155 -6 10 -2 22 8 35 16 18 16 19 0 6 -15 -11 -18 -9 -23 16 -4
15 -9 35 -12 43 -10 25 -15 44 -16 62 -1 9 -4 15 -7 13 -9 -6 -61 115 -54 126
3 5 0 8 -8 7 -7 -2 -12 5 -12 14 1 10 -2 15 -7 12 -8 -5 -13 9 -10 29 0 4 -3
7 -9 7 -5 0 -27 26 -48 58 -22 31 -51 69 -65 84 -14 15 -22 29 -19 32 3 3 0 6
-6 6 -15 0 -92 76 -92 91 0 7 -3 9 -6 6 -7 -6 -86 50 -92 65 -2 5 -9 8 -16 8
-7 0 -25 11 -40 25 -14 13 -28 23 -29 22 -5 -3 -141 67 -148 76 -3 5 -9 8 -13
8 -25 -4 -36 0 -30 11 4 6 3 8 -3 5 -12 -7 -83 11 -83 21 0 4 -8 8 -17 9 -38
2 -78 15 -85 26 -6 9 -8 9 -8 0 0 -8 -13 -7 -46 3 -25 7 -67 16 -93 19 -25 3
-62 8 -81 11 -62 10 -284 12 -315 3z m105 -6301 c0 -9 4 -8 10 2 5 8 10 10 10
3 0 -6 9 -9 20 -6 14 4 20 0 20 -10 0 -22 -18 -31 -35 -17 -8 7 -15 9 -15 5 0
-4 -6 -2 -13 4 -8 6 -17 8 -21 4 -4 -4 -4 0 0 10 7 20 24 23 24 5z"/>
<path d="M3913 6935 c0 -8 4 -12 9 -9 5 3 6 10 3 15 -9 13 -12 11 -12 -6z"/>
<path d="M4466 6622 c-3 -5 1 -9 9 -9 8 0 12 4 9 9 -3 4 -7 8 -9 8 -2 0 -6 -4
-9 -8z"/>
<path d="M1916 6242 c-3 -5 1 -9 9 -9 8 0 12 4 9 9 -3 4 -7 8 -9 8 -2 0 -6 -4
-9 -8z"/>
<path d="M4690 6239 c0 -5 5 -7 10 -4 6 3 10 8 10 11 0 2 -4 4 -10 4 -5 0 -10
-5 -10 -11z"/>
<path d="M6196 4602 c-3 -5 1 -9 9 -9 8 0 12 4 9 9 -3 4 -7 8 -9 8 -2 0 -6 -4
-9 -8z"/>
<path d="M4010 4319 c0 -5 5 -7 10 -4 6 3 10 8 10 11 0 2 -4 4 -10 4 -5 0 -10
-5 -10 -11z"/>
<path d="M4053 4305 c0 -8 4 -12 9 -9 5 3 6 10 3 15 -9 13 -12 11 -12 -6z"/>
<path d="M3996 4287 c3 -10 9 -15 12 -12 3 3 0 11 -7 18 -10 9 -11 8 -5 -6z"/>
<path d="M3946 4278 c3 -5 10 -6 15 -3 13 9 11 12 -6 12 -8 0 -12 -4 -9 -9z"/>
<path d="M5476 3882 c-3 -5 1 -9 9 -9 8 0 12 4 9 9 -3 4 -7 8 -9 8 -2 0 -6 -4
-9 -8z"/>
<path d="M1349 3323 c-13 -16 -12 -17 4 -4 9 7 17 15 17 17 0 8 -8 3 -21 -13z"/>
<path d="M5076 882 c-3 -5 1 -9 9 -9 8 0 12 4 9 9 -3 4 -7 8 -9 8 -2 0 -6 -4
-9 -8z"/>
<path d="M4875 819 c-3 -4 2 -6 10 -5 21 3 28 13 10 13 -9 0 -18 -4 -20 -8z"/>
<path d="M2715 789 c-4 -6 -5 -12 -2 -15 2 -3 7 2 10 11 7 17 1 20 -8 4z"/>
<path d="M2626 782 c-3 -5 1 -9 9 -9 8 0 15 4 15 9 0 4 -4 8 -9 8 -6 0 -12 -4
-15 -8z"/>
<path d="M5053 775 c0 -8 4 -12 9 -9 5 3 6 10 3 15 -9 13 -12 11 -12 -6z"/>
<path d="M2433 765 c0 -8 4 -12 9 -9 5 3 6 10 3 15 -9 13 -12 11 -12 -6z"/>
<path d="M2584 758 c-12 -14 -13 -18 -3 -10 9 6 18 10 21 7 2 -3 5 2 5 10 0
19 0 19 -23 -7z"/>
<path d="M4666 765 c-11 -8 -15 -15 -9 -15 6 0 16 7 23 15 16 19 11 19 -14 0z"/>
<path d="M4813 767 c0 -7 13 -13 29 -14 15 0 28 3 28 7 0 5 -8 7 -17 5 -10 -1
-23 1 -29 6 -6 5 -11 4 -11 -4z"/>
<path d="M4889 763 c-13 -16 -12 -17 4 -4 16 13 21 21 13 21 -2 0 -10 -8 -17
-17z"/>
<path d="M2526 762 c-3 -5 1 -9 9 -9 8 0 12 4 9 9 -3 4 -7 8 -9 8 -2 0 -6 -4
-9 -8z"/>
<path d="M2673 755 c0 -8 6 -16 13 -19 7 -3 10 2 7 15 -6 22 -20 26 -20 4z"/>
<path d="M2760 760 c-9 -6 -10 -10 -3 -10 6 0 15 5 18 10 8 12 4 12 -15 0z"/>
<path d="M2802 757 c10 -8 14 -18 10 -22 -4 -5 -1 -5 6 -1 17 10 15 14 -10 26
-21 10 -21 10 -6 -3z"/>
<path d="M2854 755 c1 -8 6 -18 11 -22 4 -4 5 -3 2 4 -4 6 -2 13 5 15 8 3 6 6
-4 10 -10 4 -15 2 -14 -7z"/>
<path d="M4720 760 c-12 -7 -10 -9 8 -7 12 0 22 5 22 9 0 11 -12 10 -30 -2z"/>
<path d="M4946 758 c3 -5 9 -7 12 -4 3 3 12 0 21 -6 13 -10 14 -10 4 2 -15 16
-46 23 -37 8z"/>
<path d="M5239 753 c-13 -16 -12 -17 4 -4 9 7 17 15 17 17 0 8 -8 3 -21 -13z"/>
<path d="M5770 766 c0 -2 7 -7 16 -10 8 -3 12 -2 9 4 -6 10 -25 14 -25 6z"/>
<path d="M2894 752 c3 -5 0 -13 -6 -15 -9 -4 -10 -6 -1 -6 17 -1 25 16 12 25
-7 4 -9 3 -5 -4z"/>
<path d="M4914 751 c4 -5 0 -11 -6 -14 -7 -3 -3 -4 9 -4 17 1 19 4 11 14 -12
15 -22 18 -14 4z"/>
<path d="M5196 747 c3 -10 9 -15 12 -12 3 3 0 11 -7 18 -10 9 -11 8 -5 -6z"/>
<path d="M5975 751 c-3 -5 -2 -12 3 -15 5 -3 9 1 9 9 0 17 -3 19 -12 6z"/>
<path d="M2095 741 c-3 -5 -2 -12 3 -15 5 -3 9 1 9 9 0 17 -3 19 -12 6z"/>
<path d="M2235 741 c-3 -5 -2 -12 3 -15 5 -3 9 1 9 9 0 17 -3 19 -12 6z"/>
<path d="M2390 742 c0 -5 7 -9 15 -9 8 0 12 4 9 9 -3 4 -9 8 -15 8 -5 0 -9 -4
-9 -8z"/>
<path d="M2475 740 c-16 -7 -17 -9 -3 -9 9 -1 20 4 23 9 7 11 7 11 -20 0z"/>
<path d="M2739 733 c14 -28 14 -36 -1 -27 -6 4 -8 3 -5 -4 4 -5 15 -9 25 -8 9
2 23 -4 30 -13 11 -14 13 -14 27 4 9 11 19 19 23 17 4 -2 8 4 10 12 2 9 -1 16
-7 16 -6 0 -7 -7 -4 -17 4 -10 2 -14 -5 -9 -6 3 -16 -2 -21 -11 -11 -17 -11
-17 -22 0 -5 9 -14 15 -20 12 -5 -4 -9 -2 -9 2 0 5 -7 18 -16 29 -15 18 -15
18 -5 -3z"/>
<path d="M4455 740 c3 -5 8 -10 11 -10 2 0 4 5 4 10 0 6 -5 10 -11 10 -5 0 -7
-4 -4 -10z"/>
<path d="M4510 741 c0 -6 4 -13 10 -16 6 -3 7 1 4 9 -7 18 -14 21 -14 7z"/>
<path d="M4616 743 c-10 -10 -7 -33 4 -33 5 0 7 7 4 15 -5 11 -2 13 10 9 9 -3
16 -4 16 -1 0 8 -28 16 -34 10z"/>
<path d="M4697 739 c7 -7 15 -10 18 -7 3 3 -2 9 -12 12 -14 6 -15 5 -6 -5z"/>
<path d="M5516 742 c-3 -5 1 -9 9 -9 8 0 12 4 9 9 -3 4 -7 8 -9 8 -2 0 -6 -4
-9 -8z"/>
<path d="M2335 729 c-4 -6 -5 -12 -2 -15 2 -3 7 2 10 11 7 17 1 20 -8 4z"/>
<path d="M2506 723 c-6 -14 -5 -15 5 -6 7 7 10 15 7 18 -3 3 -9 -2 -12 -12z"/>
<path d="M2942 733 c-10 -4 -9 -8 5 -18 13 -10 20 -10 25 -2 6 9 11 8 19 -3 9
-13 10 -13 6 0 -2 9 -14 14 -26 13 -13 -2 -20 1 -16 7 7 11 6 11 -13 3z"/>
<path d="M3021 733 c0 -6 -4 -20 -7 -30 -5 -14 -4 -15 5 -7 7 7 11 20 8 30 -3
11 -5 14 -6 7z"/>
<path d="M4660 736 c0 -2 7 -7 16 -10 8 -3 12 -2 9 4 -6 10 -25 14 -25 6z"/>
<path d="M4806 723 c-6 -14 -5 -15 5 -6 7 7 10 15 7 18 -3 3 -9 -2 -12 -12z"/>
<path d="M5093 727 c0 -8 12 -13 27 -13 15 0 27 5 27 13 0 9 -4 10 -14 2 -9
-8 -17 -8 -26 0 -10 8 -14 7 -14 -2z"/>
<path d="M5276 727 c3 -10 9 -15 12 -12 3 3 0 11 -7 18 -10 9 -11 8 -5 -6z"/>
<path d="M5359 738 c-7 -23 -4 -38 7 -42 11 -4 12 -1 5 13 -6 10 -7 21 -4 25
3 3 3 6 0 6 -4 0 -7 -1 -8 -2z"/>
<path d="M1790 720 c0 -5 5 -10 11 -10 5 0 7 5 4 10 -3 6 -8 10 -11 10 -2 0
-4 -4 -4 -10z"/>
<path d="M1850 721 c0 -6 4 -13 10 -16 6 -3 7 1 4 9 -7 18 -14 21 -14 7z"/>
<path d="M2160 720 c18 -12 30 -13 30 -2 0 4 -10 9 -22 9 -18 2 -20 0 -8 -7z"/>
<path d="M2355 721 c-3 -5 -2 -12 3 -15 5 -3 9 1 9 9 0 17 -3 19 -12 6z"/>
<path d="M2560 720 c-9 -6 -10 -10 -3 -10 6 0 15 5 18 10 8 12 4 12 -15 0z"/>
<path d="M2672 714 c10 -10 20 -16 22 -13 3 3 -5 11 -17 18 -21 13 -21 12 -5
-5z"/>
<path d="M2785 720 c3 -5 11 -10 16 -10 6 0 7 5 4 10 -3 6 -11 10 -16 10 -6 0
-7 -4 -4 -10z"/>
<path d="M4302 709 c-7 -10 -8 -19 -3 -19 5 0 11 5 13 11 2 7 16 4 38 -10 19
-11 31 -21 25 -22 -5 -1 -17 -2 -25 -3 -8 0 -14 -7 -12 -14 2 -9 -4 -12 -17
-7 -11 3 -22 1 -26 -4 -4 -7 1 -8 11 -4 11 4 15 3 10 -5 -3 -6 -1 -14 5 -18 8
-5 9 -3 4 6 -6 10 -4 12 8 7 12 -4 15 -1 12 14 -2 11 1 19 8 18 43 -5 50 15
12 33 -27 12 -25 31 3 21 14 -5 15 -3 5 8 -10 10 -16 10 -25 1 -7 -7 -16 -8
-23 -2 -7 6 -15 2 -23 -11z"/>
<path d="M4436 715 c4 -8 8 -15 10 -15 2 0 4 7 4 15 0 8 -4 15 -10 15 -5 0 -7
-7 -4 -15z"/>
<path d="M4475 720 c-4 -6 -4 -14 -1 -17 3 -4 6 -1 6 5 0 7 5 12 10 12 6 0 9
-6 8 -12 -4 -19 45 -16 49 2 3 9 1 11 -4 5 -12 -15 -44 -18 -41 -4 4 16 -18
23 -27 9z"/>
<path d="M4568 713 c6 -9 17 -18 26 -19 9 -1 14 2 10 7 -3 5 -10 7 -15 4 -5
-4 -9 1 -9 9 0 9 -5 16 -10 16 -7 0 -8 -6 -2 -17z"/>
<path d="M4776 717 c3 -10 9 -15 12 -12 3 3 0 11 -7 18 -10 9 -11 8 -5 -6z"/>
<path d="M5233 710 c1 -21 10 -18 13 5 1 8 -2 15 -6 15 -5 0 -8 -9 -7 -20z"/>
<path d="M5634 708 c-19 -23 -19 -23 2 -5 11 9 24 14 29 10 4 -5 5 -2 1 5 -9
16 -10 16 -32 -10z"/>
<path d="M5710 723 c0 -6 8 -17 18 -24 16 -13 16 -13 2 6 -8 11 -16 22 -17 24
-2 2 -3 0 -3 -6z"/>
<path d="M5750 715 c5 -7 8 -14 5 -17 -3 -2 2 -5 10 -5 10 0 12 4 5 12 -5 7
-8 14 -5 17 3 2 -2 5 -10 5 -10 0 -12 -4 -5 -12z"/>
<path d="M5790 718 c0 -6 3 -8 7 -5 3 4 13 1 22 -6 14 -11 14 -10 2 6 -15 20
-31 22 -31 5z"/>
<path d="M5893 715 c0 -8 4 -12 9 -9 5 3 6 10 3 15 -9 13 -12 11 -12 -6z"/>
<path d="M6150 726 c0 -2 7 -7 16 -10 8 -3 12 -2 9 4 -6 10 -25 14 -25 6z"/>
<path d="M1433 705 c0 -8 4 -12 9 -9 5 3 6 10 3 15 -9 13 -12 11 -12 -6z"/>
<path d="M1999 718 c-5 -18 -6 -38 -1 -34 7 8 12 36 6 36 -2 0 -4 -1 -5 -2z"/>
<path d="M2470 716 c0 -2 7 -9 15 -16 13 -11 14 -10 9 4 -5 14 -24 23 -24 12z"/>
<path d="M2870 709 c0 -5 5 -7 10 -4 6 3 10 8 10 11 0 2 -4 4 -10 4 -5 0 -10
-5 -10 -11z"/>
<path d="M3080 710 c-9 -6 -10 -10 -3 -10 6 0 15 5 18 10 8 12 4 12 -15 0z"/>
<path d="M3110 709 c0 -5 5 -7 10 -4 6 3 10 8 10 11 0 2 -4 4 -10 4 -5 0 -10
-5 -10 -11z"/>
<path d="M4180 705 c-8 -10 -20 -13 -33 -9 -20 6 -20 6 -4 -11 17 -16 19 -16
37 5 11 13 20 25 20 27 0 7 -8 2 -20 -12z"/>
<path d="M4201 688 c-17 -18 -31 -37 -31 -43 0 -7 3 -7 8 0 4 6 16 12 26 13
18 3 18 2 5 -14 -7 -10 -9 -15 -2 -11 6 4 14 1 17 -5 2 -7 4 -3 2 10 -1 13 -8
27 -14 31 -9 5 -7 12 7 25 19 17 21 17 36 2 23 -23 32 -20 10 4 -24 27 -29 26
-64 -12z"/>
<path d="M4735 710 c6 -10 4 -12 -11 -6 -15 6 -17 5 -6 -5 9 -9 15 -10 23 -2
8 8 7 13 -2 18 -8 6 -10 4 -4 -5z"/>
<path d="M5477 707 c-3 -8 1 -14 8 -14 7 0 11 6 8 14 -3 7 -6 13 -8 13 -2 0
-5 -6 -8 -13z"/>
<path d="M1744 702 c4 -3 14 -7 22 -8 9 -1 13 0 10 4 -4 3 -14 7 -22 8 -9 1
-13 0 -10 -4z"/>
<path d="M1924 695 c-4 -8 -11 -12 -17 -8 -6 4 -7 1 -3 -6 5 -7 11 -10 14 -7
3 3 12 0 21 -7 14 -10 14 -10 3 5 -8 9 -11 22 -7 28 3 5 4 10 0 10 -3 0 -8 -7
-11 -15z"/>
<path d="M1953 693 c0 -9 4 -10 14 -2 7 6 13 12 13 14 0 1 -6 2 -13 2 -8 0
-14 -6 -14 -14z"/>
<path d="M2226 696 c5 -12 4 -17 -3 -13 -5 3 -10 -1 -10 -9 0 -13 2 -13 16 0
12 13 13 18 2 28 -10 11 -11 9 -5 -6z"/>
<path d="M2445 702 c-13 -9 -17 -32 -6 -32 5 0 11 9 14 20 6 22 6 22 -8 12z"/>
<path d="M2636 701 c-18 -7 -18 -8 -3 -14 9 -3 17 -2 17 4 0 6 5 7 12 3 7 -4
8 -3 4 4 -4 7 -8 12 -9 11 -1 0 -11 -4 -21 -8z"/>
<path d="M2895 701 c-3 -6 -3 -11 2 -11 4 0 1 -5 -7 -11 -13 -9 -13 -10 0 -6
8 2 14 10 13 16 -2 6 6 11 17 11 11 0 19 -5 18 -11 -2 -6 4 -14 12 -16 12 -4
12 -3 2 5 -8 5 -12 13 -10 18 4 13 -39 17 -47 5z"/>
<path d="M3180 700 c0 -5 7 -7 15 -4 8 4 15 8 15 10 0 2 -7 4 -15 4 -8 0 -15
-4 -15 -10z"/>
<path d="M4390 701 c0 -6 4 -13 10 -16 6 -3 7 1 4 9 -7 18 -14 21 -14 7z"/>
<path d="M4668 703 c6 -2 18 -2 25 0 6 3 1 5 -13 5 -14 0 -19 -2 -12 -5z"/>
<path d="M4748 688 c-10 -10 -14 -18 -9 -18 10 0 36 29 30 34 -2 1 -12 -6 -21
-16z"/>
<path d="M4815 701 c-9 -15 13 -23 32 -11 15 9 14 10 -6 4 -16 -4 -21 -3 -17
5 4 6 5 11 2 11 -3 0 -7 -4 -11 -9z"/>
<path d="M4881 701 c-8 -5 -9 -11 -3 -15 5 -3 12 1 16 9 6 17 6 18 -13 6z"/>
<path d="M5324 702 c-12 -7 -11 -39 2 -50 4 -4 4 0 2 8 -3 8 -1 23 4 33 10 19
8 20 -8 9z"/>
<path d="M5514 688 c-10 -13 -15 -20 -10 -16 5 4 16 3 26 -2 12 -6 17 -5 17 5
0 8 -7 11 -16 7 -14 -5 -14 -3 -2 11 7 9 11 17 9 17 -3 0 -13 -10 -24 -22z"/>
<path d="M6025 700 c-3 -6 1 -7 9 -4 18 7 21 14 7 14 -6 0 -13 -4 -16 -10z"/>
<path d="M2028 693 c7 -3 16 -2 19 1 4 3 -2 6 -13 5 -11 0 -14 -3 -6 -6z"/>
<path d="M2285 691 c-11 -5 -23 -7 -27 -4 -5 2 -8 -1 -8 -7 0 -7 7 -9 16 -6 9
4 22 2 28 -3 8 -7 12 -4 12 10 0 10 0 19 -1 18 0 0 -9 -4 -20 -8z"/>
<path d="M2578 688 c5 -5 16 -8 23 -6 8 3 3 7 -10 11 -17 4 -21 3 -13 -5z"/>
<path d="M3157 687 c-3 -8 -2 -20 3 -26 5 -9 8 -4 8 13 0 29 -3 32 -11 13z"/>
<path d="M3245 680 c-3 -11 -11 -20 -16 -20 -6 0 -8 4 -4 9 9 15 -13 23 -32
11 -16 -9 -15 -10 5 -5 15 4 22 2 20 -5 -6 -24 19 -20 36 5 9 14 12 25 7 25
-5 0 -13 -9 -16 -20z"/>
<path d="M5108 693 c6 -2 18 -2 25 0 6 3 1 5 -13 5 -14 0 -19 -2 -12 -5z"/>
<path d="M5652 691 c-11 -6 -10 -10 0 -19 11 -8 14 -7 14 9 0 10 0 19 -1 19 0
0 -6 -4 -13 -9z"/>
<path d="M5694 682 c0 -11 9 -18 24 -19 13 0 22 0 20 1 -2 0 -12 9 -23 18 -20
16 -21 16 -21 0z"/>
<path d="M5804 682 c23 -26 23 -26 23 -7 0 8 -3 13 -5 10 -3 -3 -12 1 -21 7
-10 8 -9 4 3 -10z"/>
<path d="M1454 676 c1 -8 5 -18 8 -22 4 -3 5 1 4 10 -1 8 -5 18 -8 22 -4 3 -5
-1 -4 -10z"/>
<path d="M1656 682 c-3 -5 1 -9 9 -9 8 0 12 4 9 9 -3 4 -7 8 -9 8 -2 0 -6 -4
-9 -8z"/>
<path d="M1710 679 c0 -5 5 -7 10 -4 6 3 10 8 10 11 0 2 -4 4 -10 4 -5 0 -10
-5 -10 -11z"/>
<path d="M1869 677 c6 -8 9 -16 6 -19 -3 -2 2 -5 10 -5 13 0 13 3 -2 19 -19
21 -31 25 -14 5z"/>
<path d="M2076 673 c-6 -14 -5 -15 5 -6 7 7 10 15 7 18 -3 3 -9 -2 -12 -12z"/>
<path d="M2356 678 c3 -5 10 -6 15 -3 13 9 11 12 -6 12 -8 0 -12 -4 -9 -9z"/>
<path d="M2690 679 c0 -5 5 -7 10 -4 6 3 10 8 10 11 0 2 -4 4 -10 4 -5 0 -10
-5 -10 -11z"/>
<path d="M2727 679 c7 -7 15 -10 18 -7 3 3 -2 9 -12 12 -14 6 -15 5 -6 -5z"/>
<path d="M2839 673 c-12 -16 -12 -17 2 -6 9 7 19 10 22 6 4 -3 7 -1 7 5 0 17
-16 15 -31 -5z"/>
<path d="M2970 680 c0 -5 5 -10 10 -10 6 0 10 5 10 10 0 6 -4 10 -10 10 -5 0
-10 -4 -10 -10z"/>
<path d="M3100 680 c8 -5 22 -9 30 -9 10 0 8 3 -5 9 -27 12 -43 12 -25 0z"/>
<path d="M3275 679 c-11 -16 -1 -19 13 -3 7 8 8 14 3 14 -5 0 -13 -5 -16 -11z"/>
<path d="M3560 678 c0 -9 -6 -19 -12 -21 -10 -4 -10 -6 0 -6 14 -1 28 26 18
36 -3 4 -6 -1 -6 -9z"/>
<path d="M3870 681 c0 -6 4 -13 10 -16 6 -3 7 1 4 9 -7 18 -14 21 -14 7z"/>
<path d="M3900 670 c6 -11 13 -20 16 -20 2 0 0 9 -6 20 -6 11 -13 20 -16 20
-2 0 0 -9 6 -20z"/>
<path d="M4230 680 c0 -6 7 -10 15 -10 8 0 15 2 15 4 0 2 -7 6 -15 10 -8 3
-15 1 -15 -4z"/>
<path d="M4310 680 c-13 -8 -12 -10 3 -10 9 0 17 5 17 10 0 12 -1 12 -20 0z"/>
<path d="M4450 680 c0 -5 5 -10 10 -10 6 0 10 5 10 10 0 6 -4 10 -10 10 -5 0
-10 -4 -10 -10z"/>
<path d="M4487 679 c7 -7 15 -10 18 -7 3 3 -2 9 -12 12 -14 6 -15 5 -6 -5z"/>
<path d="M4656 675 c4 -8 8 -15 10 -15 2 0 4 7 4 15 0 8 -4 15 -10 15 -5 0 -7
-7 -4 -15z"/>
<path d="M4690 679 c0 -5 5 -7 10 -4 6 3 10 8 10 11 0 2 -4 4 -10 4 -5 0 -10
-5 -10 -11z"/>
<path d="M4791 673 c7 -12 15 -20 18 -17 3 2 -3 12 -13 22 -17 16 -18 16 -5
-5z"/>
<path d="M5140 680 c-12 -7 -10 -9 7 -7 12 0 19 5 17 9 -6 10 -6 10 -24 -2z"/>
<path d="M6145 680 c-3 -6 1 -7 9 -4 18 7 21 14 7 14 -6 0 -13 -4 -16 -10z"/>
<path d="M3430 670 c0 -5 5 -10 10 -10 6 0 10 5 10 10 0 6 -4 10 -10 10 -5 0
-10 -4 -10 -10z"/>
<path d="M3586 668 c3 -4 9 -8 15 -8 5 0 9 4 9 8 0 5 -7 9 -15 9 -8 0 -12 -4
-9 -9z"/>
<path d="M3620 677 c0 -2 11 -13 25 -25 14 -12 25 -18 25 -13 0 5 -11 16 -25
25 -14 9 -25 15 -25 13z"/>
<path d="M3670 670 c0 -5 9 -14 20 -20 11 -6 20 -9 20 -8 0 2 -9 11 -20 21
-11 9 -20 13 -20 7z"/>
<path d="M4017 673 c-4 -3 -7 -11 -7 -17 0 -6 5 -5 12 2 6 6 9 14 7 17 -3 3
-9 2 -12 -2z"/>
<path d="M4111 671 c-8 -5 -16 -17 -17 -25 -1 -9 2 -14 7 -10 5 3 6 10 3 16
-5 8 -1 9 10 5 9 -4 15 -3 11 2 -3 5 1 12 7 14 7 3 9 6 3 6 -5 0 -16 -3 -24
-8z"/>
<path d="M4581 676 c2 -2 15 -9 29 -15 24 -11 24 -11 6 3 -16 13 -49 24 -35
12z"/>
<path d="M4636 667 c3 -10 9 -15 12 -12 3 3 0 11 -7 18 -10 9 -11 8 -5 -6z"/>
<path d="M1535 660 c3 -5 8 -10 11 -10 2 0 4 5 4 10 0 6 -5 10 -11 10 -5 0 -7
-4 -4 -10z"/>
<path d="M2148 663 c7 -3 16 -2 19 1 4 3 -2 6 -13 5 -11 0 -14 -3 -6 -6z"/>
<path d="M2311 647 c-13 -21 -12 -21 5 -5 10 10 16 20 13 22 -3 3 -11 -5 -18
-17z"/>
<path d="M2388 648 c2 -10 6 -18 7 -18 1 0 5 8 7 18 3 11 0 19 -7 19 -7 0 -10
-8 -7 -19z"/>
<path d="M2478 663 c7 -3 16 -2 19 1 4 3 -2 6 -13 5 -11 0 -14 -3 -6 -6z"/>
<path d="M2550 660 c0 -5 5 -10 10 -10 6 0 10 5 10 10 0 6 -4 10 -10 10 -5 0
-10 -4 -10 -10z"/>
<path d="M2775 660 c6 -10 4 -12 -11 -6 -15 6 -17 5 -6 -5 9 -9 15 -10 23 -2
8 8 7 13 -2 18 -8 6 -10 4 -4 -5z"/>
<path d="M2910 660 c0 -5 5 -10 10 -10 6 0 10 5 10 10 0 6 -4 10 -10 10 -5 0
-10 -4 -10 -10z"/>
<path d="M3054 658 c-4 -5 -1 -15 5 -21 9 -9 11 -8 6 3 -4 11 1 16 15 17 18 2
19 0 5 -21 -13 -20 -13 -23 0 -23 8 0 12 4 9 9 -3 5 0 15 6 23 14 17 14 17
-18 20 -12 1 -25 -2 -28 -7z"/>
<path d="M4270 660 c0 -5 5 -10 10 -10 6 0 10 5 10 10 0 6 -4 10 -10 10 -5 0
-10 -4 -10 -10z"/>
<path d="M4550 660 c0 -5 5 -10 10 -10 6 0 10 5 10 10 0 6 -4 10 -10 10 -5 0
-10 -4 -10 -10z"/>
<path d="M4759 668 c-7 -23 -5 -39 4 -45 7 -3 9 -3 5 2 -4 4 0 14 10 22 16 12
16 13 -2 6 -13 -4 -17 -3 -12 5 4 7 5 12 2 12 -3 0 -6 -1 -7 -2z"/>
<path d="M4910 660 c0 -5 5 -10 10 -10 6 0 10 5 10 10 0 6 -4 10 -10 10 -5 0
-10 -4 -10 -10z"/>
<path d="M5268 663 c7 -3 16 -2 19 1 4 3 -2 6 -13 5 -11 0 -14 -3 -6 -6z"/>
<path d="M5390 655 c8 -11 15 -21 16 -23 1 -1 7 5 15 15 10 12 10 15 1 9 -7
-4 -20 -2 -30 6 -16 12 -16 11 -2 -7z"/>
<path d="M5585 660 c-3 -6 1 -7 9 -4 18 7 21 14 7 14 -6 0 -13 -4 -16 -10z"/>
<path d="M5634 653 c16 -20 36 -23 36 -6 0 4 -3 3 -7 0 -3 -4 -16 1 -27 10
-21 18 -21 18 -2 -4z"/>
<path d="M5758 663 c7 -3 16 -2 19 1 4 3 -2 6 -13 5 -11 0 -14 -3 -6 -6z"/>
<path d="M5870 656 c7 -7 13 -7 20 0 6 6 3 10 -10 10 -13 0 -16 -4 -10 -10z"/>
<path d="M6000 660 c-9 -6 -10 -10 -3 -10 6 0 15 5 18 10 8 12 4 12 -15 0z"/>
<path d="M2415 649 c-4 -6 -5 -12 -2 -15 2 -3 7 2 10 11 7 17 1 20 -8 4z"/>
<path d="M2681 637 c-13 -21 -12 -21 5 -5 10 10 16 20 13 22 -3 3 -11 -5 -18
-17z"/>
<path d="M2812 640 c0 -14 2 -19 5 -12 2 6 2 18 0 25 -3 6 -5 1 -5 -13z"/>
<path d="M2872 640 c0 -14 2 -19 5 -12 2 6 2 18 0 25 -3 6 -5 1 -5 -13z"/>
<path d="M2981 637 c-13 -21 -12 -21 5 -5 10 10 16 20 13 22 -3 3 -11 -5 -18
-17z"/>
<path d="M3124 644 c-18 -14 -18 -15 4 -4 12 6 22 13 22 15 0 8 -5 6 -26 -11z"/>
<path d="M3750 645 c-10 -12 -8 -13 10 -10 29 6 34 11 16 18 -8 3 -20 0 -26
-8z"/>
<path d="M3930 645 c0 -8 4 -15 10 -15 5 0 7 7 4 15 -4 8 -8 15 -10 15 -2 0
-4 -7 -4 -15z"/>
<path d="M3991 644 c0 -11 3 -14 6 -6 3 7 2 16 -1 19 -3 4 -6 -2 -5 -13z"/>
<path d="M4136 644 c-4 -9 -4 -19 -1 -22 3 -3 5 0 5 7 0 7 4 9 10 6 6 -3 7 1
4 9 -8 20 -10 20 -18 0z"/>
<path d="M4426 644 c-23 -23 -20 -30 4 -9 11 10 20 20 20 22 0 7 -9 2 -24 -13z"/>
<path d="M4470 645 c0 -8 4 -15 10 -15 5 0 7 7 4 15 -4 8 -8 15 -10 15 -2 0
-4 -7 -4 -15z"/>
<path d="M4676 632 l-20 -27 23 20 c13 11 26 19 30 18 3 -1 8 1 11 4 3 4 0 3
-7 0 -6 -4 -13 -3 -15 2 -1 5 -12 -3 -22 -17z"/>
<path d="M5510 657 c0 -2 6 -10 14 -16 11 -9 16 -9 22 1 4 7 4 10 -1 6 -4 -4
-14 -3 -22 3 -7 6 -13 9 -13 6z"/>
<path d="M1760 640 c-9 -6 -10 -10 -3 -10 6 0 15 5 18 10 8 12 4 12 -15 0z"/>
<path d="M2070 640 c0 -5 5 -10 11 -10 5 0 7 5 4 10 -3 6 -8 10 -11 10 -2 0
-4 -4 -4 -10z"/>
<path d="M2610 638 c0 -4 4 -8 9 -8 6 0 12 4 15 8 3 5 -1 9 -9 9 -8 0 -15 -4
-15 -9z"/>
<path d="M2830 643 c0 -6 8 -17 18 -24 16 -13 16 -13 2 6 -8 11 -16 22 -17 24
-2 2 -3 0 -3 -6z"/>
<path d="M3195 640 c27 -12 43 -12 25 0 -8 5 -22 9 -30 9 -10 0 -8 -3 5 -9z"/>
<path d="M3251 645 c4 -3 19 -8 35 -11 16 -3 26 -2 23 1 -4 3 -19 8 -35 11
-16 3 -26 2 -23 -1z"/>
<path d="M3331 645 c4 -3 19 -8 35 -11 16 -3 26 -2 23 1 -4 3 -19 8 -35 11
-16 3 -26 2 -23 -1z"/>
<path d="M3420 640 c35 -24 54 -31 30 -11 -14 11 -29 21 -35 21 -5 0 -3 -5 5
-10z"/>
<path d="M3460 640 c8 -5 20 -10 25 -10 6 0 3 5 -5 10 -8 5 -19 10 -25 10 -5
0 -3 -5 5 -10z"/>
<path d="M3514 641 c4 -5 1 -12 -4 -14 -6 -3 -5 -4 2 -3 15 3 23 26 8 26 -6 0
-9 -4 -6 -9z"/>
<path d="M3556 635 c-11 -8 -16 -15 -10 -15 5 0 18 7 28 15 11 8 16 15 10 15
-5 0 -18 -7 -28 -15z"/>
<path d="M3590 629 c-17 -13 -18 -17 -5 -10 33 17 51 31 40 31 -5 0 -21 -10
-35 -21z"/>
<path d="M3826 642 c-3 -4 4 -9 15 -9 23 -2 25 3 4 10 -8 4 -16 3 -19 -1z"/>
<path d="M3876 634 c-5 -14 -4 -15 9 -4 17 14 19 20 6 20 -5 0 -12 -7 -15 -16z"/>
<path d="M4054 638 c-4 -6 -3 -8 4 -4 5 3 13 0 15 -6 3 -8 6 -6 6 5 1 19 -14
23 -25 5z"/>
<path d="M4240 639 c0 -5 5 -7 10 -4 6 3 10 8 10 11 0 2 -4 4 -10 4 -5 0 -10
-5 -10 -11z"/>
<path d="M4375 639 c-4 -6 -4 -13 -1 -16 3 -4 6 -1 6 6 0 7 5 9 12 5 7 -4 8
-3 4 4 -9 15 -13 15 -21 1z"/>
<path d="M4973 634 c0 -9 4 -11 12 -4 7 5 14 9 16 7 2 -1 3 0 1 2 -7 11 -29 7
-29 -5z"/>
<path d="M5155 640 c-3 -5 3 -7 12 -5 10 1 25 -2 33 -8 12 -9 13 -9 3 3 -15
16 -41 22 -48 10z"/>
<path d="M5270 641 c0 -6 4 -13 10 -16 6 -3 7 1 4 9 -7 18 -14 21 -14 7z"/>
<path d="M5366 642 c-3 -5 1 -9 9 -9 8 0 12 4 9 9 -3 4 -7 8 -9 8 -2 0 -6 -4
-9 -8z"/>
<path d="M5713 635 c0 -8 4 -12 9 -9 5 3 6 10 3 15 -9 13 -12 11 -12 -6z"/>
<path d="M5826 638 c3 -5 10 -6 15 -3 13 9 11 12 -6 12 -8 0 -12 -4 -9 -9z"/>
<path d="M1975 631 c-3 -5 -2 -12 3 -15 5 -3 9 1 9 9 0 17 -3 19 -12 6z"/>
<path d="M2275 631 c-3 -5 -2 -12 3 -15 5 -3 9 1 9 9 0 17 -3 19 -12 6z"/>
<path d="M3630 630 c-9 -6 -10 -10 -3 -10 6 0 15 5 18 10 8 12 4 12 -15 0z"/>
<path d="M3710 630 c-9 -6 -10 -10 -3 -10 6 0 15 5 18 10 8 12 4 12 -15 0z"/>
<path d="M3790 630 c-9 -6 -10 -10 -3 -10 6 0 15 5 18 10 8 12 4 12 -15 0z"/>
<path d="M4789 623 c-13 -16 -12 -17 4 -4 16 13 21 21 13 21 -2 0 -10 -8 -17
-17z"/>
<path d="M5113 625 c0 -8 4 -15 9 -15 4 0 8 4 8 9 0 6 -4 12 -8 15 -5 3 -9 -1
-9 -9z"/>
<path d="M1813 623 c4 -3 1 -13 -6 -22 -11 -14 -10 -14 5 -2 16 12 16 31 1 31
-4 0 -3 -3 0 -7z"/>
<path d="M2759 613 c-13 -16 -12 -17 4 -4 9 7 17 15 17 17 0 8 -8 3 -21 -13z"/>
<path d="M3007 619 c7 -7 15 -10 18 -7 3 3 -2 9 -12 12 -14 6 -15 5 -6 -5z"/>
<path d="M3235 621 c-3 -5 0 -13 6 -17 7 -4 9 -3 5 4 -3 5 0 13 6 15 9 4 10 6
1 6 -6 1 -14 -3 -18 -8z"/>
<path d="M3315 621 c-3 -5 0 -13 6 -17 8 -5 9 -3 4 6 -6 10 -4 12 9 7 10 -4
15 -3 11 3 -8 13 -22 13 -30 1z"/>
<path d="M3405 622 c-14 -10 -17 -32 -5 -32 6 0 10 7 10 16 0 9 5 12 12 8 7
-4 8 -3 4 4 -8 14 -8 14 -21 4z"/>
<path d="M3893 615 c-3 -9 -3 -18 -1 -21 3 -3 8 4 11 16 6 23 -1 27 -10 5z"/>
<path d="M3975 621 c6 -10 2 -12 -16 -6 -27 8 -24 3 8 -14 17 -9 21 -8 19 4
-1 8 -6 18 -11 22 -4 4 -5 2 0 -6z"/>
<path d="M4030 621 c0 -6 4 -13 10 -16 6 -3 7 1 4 9 -7 18 -14 21 -14 7z"/>
<path d="M4567 619 c7 -7 15 -10 18 -7 3 3 -2 9 -12 12 -14 6 -15 5 -6 -5z"/>
<path d="M5770 626 c0 -2 7 -7 16 -10 8 -3 12 -2 9 4 -6 10 -25 14 -25 6z"/>
<path d="M2933 605 c0 -8 4 -15 9 -15 4 0 8 4 8 9 0 6 -4 12 -8 15 -5 3 -9 -1
-9 -9z"/>
<path d="M3662 600 c-9 -15 -9 -21 1 -26 6 -4 9 -4 5 1 -4 4 -3 14 4 22 6 7 9
15 7 18 -3 2 -10 -4 -17 -15z"/>
<path d="M3742 600 c-9 -15 -9 -21 1 -26 6 -4 9 -4 5 1 -4 4 -3 14 4 22 6 7 9
15 7 18 -3 2 -10 -4 -17 -15z"/>
<path d="M3823 600 c-10 -15 -10 -21 0 -26 6 -4 9 -3 4 1 -4 5 0 17 10 27 9
10 12 18 7 18 -5 0 -15 -9 -21 -20z"/>
<path d="M4253 606 c0 -8 11 -12 26 -11 14 1 33 -3 41 -9 13 -9 13 -9 2 6 -7
9 -21 15 -30 13 -9 -1 -22 1 -28 6 -6 5 -11 4 -11 -5z"/>
<path d="M4635 611 c-3 -5 -2 -12 3 -15 5 -3 9 1 9 9 0 17 -3 19 -12 6z"/>
<path d="M4815 609 c-4 -6 -5 -12 -2 -15 2 -3 7 2 10 11 7 17 1 20 -8 4z"/>
<path d="M5069 603 c-13 -16 -12 -17 4 -4 16 13 21 21 13 21 -2 0 -10 -8 -17
-17z"/>
<path d="M5996 607 c3 -10 9 -15 12 -12 3 3 0 11 -7 18 -10 9 -11 8 -5 -6z"/>
<path d="M1940 600 c-9 -6 -10 -10 -3 -10 6 0 15 5 18 10 8 12 4 12 -15 0z"/>
<path d="M2595 600 c3 -5 8 -10 11 -10 2 0 4 5 4 10 0 6 -5 10 -11 10 -5 0 -7
-4 -4 -10z"/>
<path d="M2665 600 c-3 -6 1 -7 9 -4 18 7 21 14 7 14 -6 0 -13 -4 -16 -10z"/>
<path d="M2786 602 c-3 -5 1 -9 9 -9 8 0 12 4 9 9 -3 4 -7 8 -9 8 -2 0 -6 -4
-9 -8z"/>
<path d="M2820 606 c0 -2 8 -10 18 -17 15 -13 16 -12 3 4 -13 16 -21 21 -21
13z"/>
<path d="M3493 595 c0 -8 4 -12 9 -9 4 3 8 9 8 15 0 5 -4 9 -8 9 -5 0 -9 -7
-9 -15z"/>
<path d="M3533 590 c1 -21 10 -18 13 5 1 8 -2 15 -6 15 -5 0 -8 -9 -7 -20z"/>
<path d="M3581 596 c-9 -11 -9 -16 1 -22 7 -4 10 -4 6 1 -4 4 -3 14 3 22 6 7
9 13 6 13 -2 0 -10 -6 -16 -14z"/>
<path d="M4014 596 c1 -8 5 -18 8 -22 4 -3 5 1 4 10 -1 8 -5 18 -8 22 -4 3 -5
-1 -4 -10z"/>
<path d="M4123 599 c9 -6 14 -15 11 -21 -4 -7 -2 -8 5 -4 14 9 -3 36 -23 36
-6 0 -3 -5 7 -11z"/>
<path d="M4190 600 c0 -4 7 -7 15 -6 23 3 26 12 5 13 -11 1 -20 -2 -20 -7z"/>
<path d="M4740 606 c0 -2 8 -10 18 -17 15 -13 16 -12 3 4 -13 16 -21 21 -21
13z"/>
<path d="M4920 600 c-9 -6 -10 -10 -3 -10 6 0 15 5 18 10 8 12 4 12 -15 0z"/>
<path d="M3135 591 c-3 -5 -2 -12 3 -15 5 -3 9 1 9 9 0 17 -3 19 -12 6z"/>
<path d="M4093 585 c0 -8 4 -12 9 -9 5 3 6 10 3 15 -9 13 -12 11 -12 -6z"/>
<path d="M4676 587 c3 -10 9 -15 12 -12 3 3 0 11 -7 18 -10 9 -11 8 -5 -6z"/>
<path d="M2990 586 c0 -2 7 -7 16 -10 8 -3 12 -2 9 4 -6 10 -25 14 -25 6z"/>
<path d="M3050 586 c0 -2 7 -7 16 -10 8 -3 12 -2 9 4 -6 10 -25 14 -25 6z"/>
<path d="M3255 580 c3 -5 8 -10 11 -10 2 0 4 5 4 10 0 6 -5 10 -11 10 -5 0 -7
-4 -4 -10z"/>
<path d="M3850 579 c0 -5 5 -7 10 -4 6 3 10 8 10 11 0 2 -4 4 -10 4 -5 0 -10
-5 -10 -11z"/>
<path d="M4436 578 c3 -4 11 -5 19 -1 21 7 19 12 -4 10 -11 0 -18 -5 -15 -9z"/>
<path d="M4505 580 c-3 -6 1 -7 9 -4 18 7 21 14 7 14 -6 0 -13 -4 -16 -10z"/>
</g>
</svg>
